<?xml version="1.0" encoding="utf-8"?>
<!-- Generator: Adobe Illustrator 24.1.2, SVG Export Plug-In . SVG Version: 6.00 Build 0)  -->
<svg version="1.1" id="Layer_1" xmlns="http://www.w3.org/2000/svg" xmlns:xlink="http://www.w3.org/1999/xlink" x="0px" y="0px"
	 viewBox="0 0 171 159.9" style="enable-background:new 0 0 171 159.9;" xml:space="preserve">
<style type="text/css">
	.st0{fill:#FFC907;}
	.st1{fill:#BF8F08;}
	.st2{fill:#EF5E25;}
	.st3{fill:#E3DECA;}
	.st4{fill:#FCF8DD;}
	.st5{fill:#C4BFAB;}
	.st6{fill:#DD4212;}
	.st7{fill:none;}
</style>
<g>
	<path class="st0" d="M162.5,79.6c0,43.4-35.2,78.6-78.6,78.6c-43.4,0-78.6-35.2-78.6-78.6C5.2,36.2,40.4,1,83.9,1
		C127.3,1,162.5,36.2,162.5,79.6z"/>
	<path class="st1" d="M30.9,119.9l53,38.4c46.4-1.2,78.6-38,78.6-78.6c0-1.3-0.7-9.4-0.7-10.8l-24.9-24.1L30.9,119.9z"/>
	<g>
		<g>
			<g>
				<path class="st2" d="M83.9,44.8c-31.4-12.2-53,0-53,0v75.1c20.9-10.4,53,0,53,0s32.1-10.4,53,0V44.8
					C136.9,44.8,115.3,32.6,83.9,44.8z"/>
			</g>
			<g>
				<path class="st3" d="M83.9,48.7v66.6c0,0-29.3-9.2-48.4,0V48.7C35.5,48.7,55.2,38,83.9,48.7z"/>
				<path class="st4" d="M83.9,48.7v66.6c0,0,29.3-9.2,48.4,0V48.7C132.2,48.7,112.5,38,83.9,48.7z"/>
			</g>
		</g>
		<g>
			<g>
				<path class="st5" d="M79.2,56.5c-21.6-7.9-38.8-0.1-38.9,0l-0.7-1.5c0.2-0.1,18-8.1,40.2,0L79.2,56.5z"/>
			</g>
			<g>
				<path class="st5" d="M79.2,60.6c-21.6-7.9-38.8-0.1-38.9,0l-0.7-1.5c0.2-0.1,18-8.1,40.2,0L79.2,60.6z"/>
			</g>
			<g>
				<path class="st5" d="M79.2,64.7c-21.6-7.9-38.8-0.1-38.9,0l-0.7-1.5c0.2-0.1,18-8.1,40.2,0L79.2,64.7z"/>
			</g>
			<g>
				<path class="st5" d="M39.9,68.6L39.3,67c0.3-0.1,8.1-3.2,20.4-3.1l0,1.7C47.7,65.4,40,68.5,39.9,68.6z"/>
			</g>
			<g>
				<path class="st5" d="M79.2,82.1c-21.6-7.9-38.8-0.1-38.9,0l-0.7-1.5c0.2-0.1,18-8.1,40.2,0L79.2,82.1z"/>
			</g>
			<g>
				<path class="st5" d="M79.2,86.3c-21.6-7.9-38.8-0.1-38.9,0l-0.7-1.5c0.2-0.1,18-8.1,40.2,0L79.2,86.3z"/>
			</g>
			<g>
				<path class="st5" d="M79.2,100.4c-21.6-7.9-38.8-0.1-38.9,0l-0.7-1.5c0.2-0.1,18-8.1,40.2,0L79.2,100.4z"/>
			</g>
			<g>
				<path class="st5" d="M79.2,104.5c-21.6-7.9-38.8-0.1-38.9,0l-0.7-1.5c0.2-0.1,18-8.1,40.2,0L79.2,104.5z"/>
			</g>
			<g>
				<path class="st5" d="M79.2,108.6c-21.6-7.9-38.8-0.1-38.9,0l-0.7-1.5c0.2-0.1,18-8.1,40.2,0L79.2,108.6z"/>
			</g>
		</g>
		<g>
			<g>
				<path class="st5" d="M127.6,56.5c-21.6-7.9-38.8-0.1-38.9,0L88,54.9c0.2-0.1,18-8.1,40.2,0L127.6,56.5z"/>
			</g>
			<g>
				<path class="st5" d="M127.6,60.6c-21.6-7.9-38.8-0.1-38.9,0L88,59.1c0.2-0.1,18-8.1,40.2,0L127.6,60.6z"/>
			</g>
			<g>
				<path class="st5" d="M127.6,64.7c-21.6-7.9-38.8-0.1-38.9,0L88,63.2c0.2-0.1,18-8.1,40.2,0L127.6,64.7z"/>
			</g>
			<g>
				<path class="st5" d="M127.6,68.9c-21.6-7.9-38.8-0.1-38.9,0L88,67.3c0.2-0.1,18-8.1,40.2,0L127.6,68.9z"/>
			</g>
			<g>
				<path class="st5" d="M127.6,73c-21.6-7.9-38.8-0.1-38.9,0L88,71.5c0.2-0.1,18-8.1,40.2,0L127.6,73z"/>
			</g>
			<g>
				<path class="st5" d="M127.6,77.2c-21.6-7.9-38.8-0.1-38.9,0L88,75.6c0.2-0.1,18-8.1,40.2,0L127.6,77.2z"/>
			</g>
			<g>
				<path class="st5" d="M127.9,81.1l0.6-1.5c-0.3-0.1-8.1-3.2-20.4-3.1l0,1.7C120.1,78,127.8,81.1,127.9,81.1z"/>
			</g>
			<path class="st5" d="M88,89.2v15.9c0,0,12.6-6.4,40.2,0V89.2C128.2,89.2,112.5,81.3,88,89.2z"/>
		</g>
		<path class="st6" d="M94.5,78.2V45.6c-2.7,0.6-5.4,1.3-8.3,2.3v30.3l4.1-4.2L94.5,78.2z"/>
	</g>
</g>
<path id="SVGID_x5F_1_x5F_" class="st7" d="M151.8,79.6c0,37.5-30.4,68-68,68s-68-30.4-68-68s30.4-68,68-68S151.8,42.1,151.8,79.6z"
	/>
<text><textPath  xlink:href="#SVGID_x5F_1_x5F_" startOffset="106.0221%">
<tspan  style="fill:#FFFFFF; font-family:'AntiqueOliCon-Reg'; font-size:13px;">ACERCATE A LOS LIBROS   ACERCATE A LOS LIBROS  ACERCATE A LOS LIBROS  ACERCATE A LOS LIBROS   </tspan><tspan  style="fill:#FFFFFF; font-family:'MyriadPro-Regular'; font-size:13px;"> </tspan></textPath>
</text>
</svg>
